# xmcd CD database file
# Copyright (C) 1993-1996 Ti Kan
#
# Track frame offsets:
#	182
#	13222
#	28567
#	39487
#	53485
#	64765
#	77695
#	87560
#	99510
#	110820
#
# Disc length: 1616 seconds
#
# Revision: 1
# Processed by: cddbd v1.4b41PL1 Copyright (c) Steve Scherf et al.
# Submitted via: CDValet v3.01 - Copyright (c) 1997 Greg Leichner
#
DISCID=7b064e0a
DTITLE=Hoyt Axton - Free Sailin'
DYEAR=1900
DGENRE=
TTITLE0=Bluebird
TTITLE1=Honky Tonk Music
TTITLE2=The Way Of The World
TTITLE3=The Heart You Break (May Be Your Own)
TTITLE4=Jive Man
TTITLE5=Free Sailing
TTITLE6=Them Downers
TTITLE7=Left My Gal In The Mountains
TTITLE8=Darrell And Judy
TTITLE9=Endless Road
EXTD=
EXTT0=
EXTT1=
EXTT2=
EXTT3=
EXTT4=
EXTT5=
EXTT6=
EXTT7=
EXTT8=
EXTT9=
PLAYORDER=
